<mxfile host="app.diagrams.net" modified="2021-02-01T10:54:51.506Z" agent="5.0 (Windows NT 10.0; Win64; x64) AppleWebKit/537.36 (KHTML, like Gecko) Chrome/88.0.4324.96 Safari/537.36 Edg/88.0.705.56" etag="OjOA3iURT9wyEw6ExXCF" compressed="false" version="14.2.9" type="device" pages="4">
  <diagram id="xPTTwJY-9kgdS2KoSDHA" name="Page-2">
    <mxGraphModel dx="1278" dy="540" grid="1" gridSize="10" guides="1" tooltips="1" connect="1" arrows="1" fold="1" page="1" pageScale="1" pageWidth="850" pageHeight="1100" math="0" shadow="0">
      <root>
        <mxCell id="mtWBOeLEVj0iAqCAxQeC-0" />
        <mxCell id="mtWBOeLEVj0iAqCAxQeC-1" parent="mtWBOeLEVj0iAqCAxQeC-0" />
        <mxCell id="cTsdZOpJIquQecpwfRZQ-3" style="edgeStyle=orthogonalEdgeStyle;rounded=0;orthogonalLoop=1;jettySize=auto;html=1;exitX=0.5;exitY=1;exitDx=0;exitDy=0;entryX=0.5;entryY=0;entryDx=0;entryDy=0;" parent="mtWBOeLEVj0iAqCAxQeC-1" source="cTsdZOpJIquQecpwfRZQ-0" target="cTsdZOpJIquQecpwfRZQ-1" edge="1">
          <mxGeometry relative="1" as="geometry" />
        </mxCell>
        <mxCell id="cTsdZOpJIquQecpwfRZQ-0" value="A[9][9]" style="shape=parallelogram;perimeter=parallelogramPerimeter;whiteSpace=wrap;html=1;fixedSize=1;" parent="mtWBOeLEVj0iAqCAxQeC-1" vertex="1">
          <mxGeometry x="70" y="111" width="120" height="30" as="geometry" />
        </mxCell>
        <mxCell id="uV8x5kSc8ASFRHZWUySR-2" style="edgeStyle=orthogonalEdgeStyle;rounded=0;orthogonalLoop=1;jettySize=auto;html=1;entryX=0.5;entryY=0;entryDx=0;entryDy=0;" edge="1" parent="mtWBOeLEVj0iAqCAxQeC-1" source="cTsdZOpJIquQecpwfRZQ-1" target="HiLUSybfmwto4ce4Hpbg-0">
          <mxGeometry relative="1" as="geometry" />
        </mxCell>
        <mxCell id="cTsdZOpJIquQecpwfRZQ-1" value="solve_sudoku(A[9][9])" style="shape=process;whiteSpace=wrap;html=1;backgroundOutline=1;" parent="mtWBOeLEVj0iAqCAxQeC-1" vertex="1">
          <mxGeometry x="40" y="170" width="180" height="60" as="geometry" />
        </mxCell>
        <mxCell id="HiLUSybfmwto4ce4Hpbg-0" value="end" style="rounded=1;whiteSpace=wrap;html=1;" vertex="1" parent="mtWBOeLEVj0iAqCAxQeC-1">
          <mxGeometry x="85" y="260" width="90" height="30" as="geometry" />
        </mxCell>
        <mxCell id="uV8x5kSc8ASFRHZWUySR-1" style="edgeStyle=orthogonalEdgeStyle;rounded=0;orthogonalLoop=1;jettySize=auto;html=1;entryX=0.5;entryY=0;entryDx=0;entryDy=0;" edge="1" parent="mtWBOeLEVj0iAqCAxQeC-1" source="uV8x5kSc8ASFRHZWUySR-0" target="cTsdZOpJIquQecpwfRZQ-0">
          <mxGeometry relative="1" as="geometry" />
        </mxCell>
        <mxCell id="uV8x5kSc8ASFRHZWUySR-0" value="start" style="rounded=1;whiteSpace=wrap;html=1;" vertex="1" parent="mtWBOeLEVj0iAqCAxQeC-1">
          <mxGeometry x="87.5" y="50" width="85" height="30" as="geometry" />
        </mxCell>
      </root>
    </mxGraphModel>
  </diagram>
  <diagram id="C5RBs43oDa-KdzZeNtuy" name="find_empty">
    <mxGraphModel dx="1065" dy="450" grid="1" gridSize="10" guides="1" tooltips="1" connect="1" arrows="1" fold="1" page="1" pageScale="1" pageWidth="827" pageHeight="1169" math="0" shadow="0">
      <root>
        <mxCell id="WIyWlLk6GJQsqaUBKTNV-0" />
        <mxCell id="WIyWlLk6GJQsqaUBKTNV-1" parent="WIyWlLk6GJQsqaUBKTNV-0" />
        <mxCell id="PkuuQ_kqzpsPIKTb1VUj-19" style="edgeStyle=orthogonalEdgeStyle;rounded=0;orthogonalLoop=1;jettySize=auto;html=1;entryX=0.5;entryY=0;entryDx=0;entryDy=0;" parent="WIyWlLk6GJQsqaUBKTNV-1" target="PkuuQ_kqzpsPIKTb1VUj-1" edge="1">
          <mxGeometry relative="1" as="geometry">
            <mxPoint x="230" y="130" as="sourcePoint" />
          </mxGeometry>
        </mxCell>
        <mxCell id="PkuuQ_kqzpsPIKTb1VUj-11" style="edgeStyle=orthogonalEdgeStyle;rounded=0;orthogonalLoop=1;jettySize=auto;html=1;exitX=0.5;exitY=1;exitDx=0;exitDy=0;entryX=0.5;entryY=0;entryDx=0;entryDy=0;" parent="WIyWlLk6GJQsqaUBKTNV-1" source="PkuuQ_kqzpsPIKTb1VUj-1" target="PkuuQ_kqzpsPIKTb1VUj-2" edge="1">
          <mxGeometry relative="1" as="geometry" />
        </mxCell>
        <mxCell id="PkuuQ_kqzpsPIKTb1VUj-1" value="&amp;nbsp;r = 0" style="rounded=0;whiteSpace=wrap;html=1;" parent="WIyWlLk6GJQsqaUBKTNV-1" vertex="1">
          <mxGeometry x="210" y="180" width="40" height="30" as="geometry" />
        </mxCell>
        <mxCell id="Q5cPI0dKRrYSrJ7UKJlP-1" style="edgeStyle=orthogonalEdgeStyle;rounded=0;orthogonalLoop=1;jettySize=auto;html=1;entryX=0.5;entryY=0;entryDx=0;entryDy=0;" edge="1" parent="WIyWlLk6GJQsqaUBKTNV-1" source="PkuuQ_kqzpsPIKTb1VUj-2" target="Q5cPI0dKRrYSrJ7UKJlP-0">
          <mxGeometry relative="1" as="geometry" />
        </mxCell>
        <mxCell id="Q5cPI0dKRrYSrJ7UKJlP-6" style="edgeStyle=orthogonalEdgeStyle;rounded=0;orthogonalLoop=1;jettySize=auto;html=1;entryX=0;entryY=0.5;entryDx=0;entryDy=0;" edge="1" parent="WIyWlLk6GJQsqaUBKTNV-1" source="PkuuQ_kqzpsPIKTb1VUj-2" target="Q5cPI0dKRrYSrJ7UKJlP-5">
          <mxGeometry relative="1" as="geometry" />
        </mxCell>
        <mxCell id="PkuuQ_kqzpsPIKTb1VUj-2" value="r &amp;lt; 9" style="rhombus;whiteSpace=wrap;html=1;" parent="WIyWlLk6GJQsqaUBKTNV-1" vertex="1">
          <mxGeometry x="180" y="240" width="100" height="40" as="geometry" />
        </mxCell>
        <mxCell id="PkuuQ_kqzpsPIKTb1VUj-6" style="edgeStyle=orthogonalEdgeStyle;rounded=0;orthogonalLoop=1;jettySize=auto;html=1;exitX=0.5;exitY=1;exitDx=0;exitDy=0;entryX=0.5;entryY=0;entryDx=0;entryDy=0;" parent="WIyWlLk6GJQsqaUBKTNV-1" source="PkuuQ_kqzpsPIKTb1VUj-3" target="PkuuQ_kqzpsPIKTb1VUj-4" edge="1">
          <mxGeometry relative="1" as="geometry" />
        </mxCell>
        <mxCell id="PkuuQ_kqzpsPIKTb1VUj-17" style="edgeStyle=orthogonalEdgeStyle;rounded=0;orthogonalLoop=1;jettySize=auto;html=1;exitX=0;exitY=0.5;exitDx=0;exitDy=0;entryX=0.5;entryY=1;entryDx=0;entryDy=0;" parent="WIyWlLk6GJQsqaUBKTNV-1" source="PkuuQ_kqzpsPIKTb1VUj-3" target="PkuuQ_kqzpsPIKTb1VUj-8" edge="1">
          <mxGeometry relative="1" as="geometry" />
        </mxCell>
        <mxCell id="PkuuQ_kqzpsPIKTb1VUj-3" value="c &amp;lt; 9" style="rhombus;whiteSpace=wrap;html=1;" parent="WIyWlLk6GJQsqaUBKTNV-1" vertex="1">
          <mxGeometry x="180" y="365" width="100" height="40" as="geometry" />
        </mxCell>
        <mxCell id="PkuuQ_kqzpsPIKTb1VUj-14" style="edgeStyle=orthogonalEdgeStyle;rounded=0;orthogonalLoop=1;jettySize=auto;html=1;exitX=0.5;exitY=1;exitDx=0;exitDy=0;entryX=0.5;entryY=0;entryDx=0;entryDy=0;" parent="WIyWlLk6GJQsqaUBKTNV-1" source="PkuuQ_kqzpsPIKTb1VUj-4" target="PkuuQ_kqzpsPIKTb1VUj-30" edge="1">
          <mxGeometry relative="1" as="geometry">
            <mxPoint x="230" y="480" as="targetPoint" />
          </mxGeometry>
        </mxCell>
        <mxCell id="PkuuQ_kqzpsPIKTb1VUj-21" style="edgeStyle=orthogonalEdgeStyle;rounded=0;orthogonalLoop=1;jettySize=auto;html=1;exitX=1;exitY=0.5;exitDx=0;exitDy=0;" parent="WIyWlLk6GJQsqaUBKTNV-1" source="PkuuQ_kqzpsPIKTb1VUj-4" target="PkuuQ_kqzpsPIKTb1VUj-7" edge="1">
          <mxGeometry relative="1" as="geometry" />
        </mxCell>
        <mxCell id="PkuuQ_kqzpsPIKTb1VUj-4" value="puzzle[r][c] == 0" style="rhombus;whiteSpace=wrap;html=1;" parent="WIyWlLk6GJQsqaUBKTNV-1" vertex="1">
          <mxGeometry x="170" y="430" width="120" height="60" as="geometry" />
        </mxCell>
        <mxCell id="Q5cPI0dKRrYSrJ7UKJlP-4" style="edgeStyle=orthogonalEdgeStyle;rounded=0;orthogonalLoop=1;jettySize=auto;html=1;" edge="1" parent="WIyWlLk6GJQsqaUBKTNV-1" source="PkuuQ_kqzpsPIKTb1VUj-7">
          <mxGeometry relative="1" as="geometry">
            <mxPoint x="230" y="350" as="targetPoint" />
            <Array as="points">
              <mxPoint x="330" y="350" />
            </Array>
          </mxGeometry>
        </mxCell>
        <mxCell id="PkuuQ_kqzpsPIKTb1VUj-7" value="c += 1" style="rounded=0;whiteSpace=wrap;html=1;" parent="WIyWlLk6GJQsqaUBKTNV-1" vertex="1">
          <mxGeometry x="300" y="370" width="60" height="30" as="geometry" />
        </mxCell>
        <mxCell id="PkuuQ_kqzpsPIKTb1VUj-18" style="edgeStyle=orthogonalEdgeStyle;rounded=0;orthogonalLoop=1;jettySize=auto;html=1;exitX=0.5;exitY=0;exitDx=0;exitDy=0;" parent="WIyWlLk6GJQsqaUBKTNV-1" source="PkuuQ_kqzpsPIKTb1VUj-8" edge="1">
          <mxGeometry relative="1" as="geometry">
            <mxPoint x="225" y="220" as="targetPoint" />
            <Array as="points">
              <mxPoint x="143" y="220" />
            </Array>
          </mxGeometry>
        </mxCell>
        <mxCell id="PkuuQ_kqzpsPIKTb1VUj-8" value="r += 1" style="rounded=0;whiteSpace=wrap;html=1;" parent="WIyWlLk6GJQsqaUBKTNV-1" vertex="1">
          <mxGeometry x="115" y="265" width="55" height="30" as="geometry" />
        </mxCell>
        <mxCell id="PkuuQ_kqzpsPIKTb1VUj-24" value="False" style="text;html=1;strokeColor=none;fillColor=none;align=center;verticalAlign=middle;whiteSpace=wrap;rounded=0;" parent="WIyWlLk6GJQsqaUBKTNV-1" vertex="1">
          <mxGeometry x="285" y="400" width="40" height="20" as="geometry" />
        </mxCell>
        <mxCell id="PkuuQ_kqzpsPIKTb1VUj-25" value="True" style="text;html=1;strokeColor=none;fillColor=none;align=center;verticalAlign=middle;whiteSpace=wrap;rounded=0;" parent="WIyWlLk6GJQsqaUBKTNV-1" vertex="1">
          <mxGeometry x="185" y="400" width="40" height="30" as="geometry" />
        </mxCell>
        <mxCell id="PkuuQ_kqzpsPIKTb1VUj-26" value="True" style="text;html=1;strokeColor=none;fillColor=none;align=center;verticalAlign=middle;whiteSpace=wrap;rounded=0;" parent="WIyWlLk6GJQsqaUBKTNV-1" vertex="1">
          <mxGeometry x="225" y="274" width="40" height="30" as="geometry" />
        </mxCell>
        <mxCell id="PkuuQ_kqzpsPIKTb1VUj-27" value="True" style="text;html=1;strokeColor=none;fillColor=none;align=center;verticalAlign=middle;whiteSpace=wrap;rounded=0;" parent="WIyWlLk6GJQsqaUBKTNV-1" vertex="1">
          <mxGeometry x="180" y="480" width="40" height="30" as="geometry" />
        </mxCell>
        <mxCell id="PkuuQ_kqzpsPIKTb1VUj-28" value="False" style="text;html=1;strokeColor=none;fillColor=none;align=center;verticalAlign=middle;whiteSpace=wrap;rounded=0;" parent="WIyWlLk6GJQsqaUBKTNV-1" vertex="1">
          <mxGeometry x="145" y="310" width="40" height="30" as="geometry" />
        </mxCell>
        <mxCell id="PkuuQ_kqzpsPIKTb1VUj-30" value="return r, c" style="rounded=1;whiteSpace=wrap;html=1;" parent="WIyWlLk6GJQsqaUBKTNV-1" vertex="1">
          <mxGeometry x="175" y="520" width="110" height="30" as="geometry" />
        </mxCell>
        <mxCell id="PkuuQ_kqzpsPIKTb1VUj-33" value="False" style="text;html=1;strokeColor=none;fillColor=none;align=center;verticalAlign=middle;whiteSpace=wrap;rounded=0;" parent="WIyWlLk6GJQsqaUBKTNV-1" vertex="1">
          <mxGeometry x="280" y="230" width="40" height="20" as="geometry" />
        </mxCell>
        <mxCell id="ZlqnnQYWPOmZchDFJd4P-0" value="find_empty(puzzle)" style="rounded=1;whiteSpace=wrap;html=1;" vertex="1" parent="WIyWlLk6GJQsqaUBKTNV-1">
          <mxGeometry x="170" y="130" width="120" height="30" as="geometry" />
        </mxCell>
        <mxCell id="Q5cPI0dKRrYSrJ7UKJlP-2" style="edgeStyle=orthogonalEdgeStyle;rounded=0;orthogonalLoop=1;jettySize=auto;html=1;entryX=0.5;entryY=0;entryDx=0;entryDy=0;" edge="1" parent="WIyWlLk6GJQsqaUBKTNV-1" source="Q5cPI0dKRrYSrJ7UKJlP-0" target="PkuuQ_kqzpsPIKTb1VUj-3">
          <mxGeometry relative="1" as="geometry" />
        </mxCell>
        <mxCell id="Q5cPI0dKRrYSrJ7UKJlP-0" value="&amp;nbsp;c = 0" style="rounded=0;whiteSpace=wrap;html=1;" vertex="1" parent="WIyWlLk6GJQsqaUBKTNV-1">
          <mxGeometry x="210" y="304" width="40" height="30" as="geometry" />
        </mxCell>
        <mxCell id="Q5cPI0dKRrYSrJ7UKJlP-7" style="edgeStyle=orthogonalEdgeStyle;rounded=0;orthogonalLoop=1;jettySize=auto;html=1;entryX=1;entryY=0.5;entryDx=0;entryDy=0;" edge="1" parent="WIyWlLk6GJQsqaUBKTNV-1" source="Q5cPI0dKRrYSrJ7UKJlP-5" target="PkuuQ_kqzpsPIKTb1VUj-30">
          <mxGeometry relative="1" as="geometry">
            <Array as="points">
              <mxPoint x="380" y="535" />
            </Array>
          </mxGeometry>
        </mxCell>
        <mxCell id="Q5cPI0dKRrYSrJ7UKJlP-5" value="r = None&lt;br&gt;&amp;nbsp;c = None" style="rounded=0;whiteSpace=wrap;html=1;" vertex="1" parent="WIyWlLk6GJQsqaUBKTNV-1">
          <mxGeometry x="354" y="240" width="60" height="40" as="geometry" />
        </mxCell>
      </root>
    </mxGraphModel>
  </diagram>
  <diagram id="Gz4IY5wPiz7JjckrLoTn" name="is_valid">
    <mxGraphModel dx="1278" dy="540" grid="1" gridSize="10" guides="1" tooltips="1" connect="1" arrows="1" fold="1" page="1" pageScale="1" pageWidth="850" pageHeight="1100" math="0" shadow="0">
      <root>
        <mxCell id="qzIuOvZ-8KMCtrFPUV70-0" />
        <mxCell id="qzIuOvZ-8KMCtrFPUV70-1" parent="qzIuOvZ-8KMCtrFPUV70-0" />
        <mxCell id="0aFsL2Dd2XirSNBW9ziv-0" style="edgeStyle=orthogonalEdgeStyle;rounded=0;orthogonalLoop=1;jettySize=auto;html=1;exitX=0.5;exitY=1;exitDx=0;exitDy=0;entryX=0.5;entryY=0;entryDx=0;entryDy=0;" edge="1" parent="qzIuOvZ-8KMCtrFPUV70-1" target="qzIuOvZ-8KMCtrFPUV70-3">
          <mxGeometry relative="1" as="geometry">
            <mxPoint x="261" y="160" as="sourcePoint" />
          </mxGeometry>
        </mxCell>
        <mxCell id="qzIuOvZ-8KMCtrFPUV70-5" style="edgeStyle=orthogonalEdgeStyle;rounded=0;orthogonalLoop=1;jettySize=auto;html=1;" edge="1" parent="qzIuOvZ-8KMCtrFPUV70-1" source="qzIuOvZ-8KMCtrFPUV70-3">
          <mxGeometry relative="1" as="geometry">
            <mxPoint x="261" y="260" as="targetPoint" />
          </mxGeometry>
        </mxCell>
        <mxCell id="qzIuOvZ-8KMCtrFPUV70-3" value="row_val = puzzle[row][:]" style="rounded=0;whiteSpace=wrap;html=1;" vertex="1" parent="qzIuOvZ-8KMCtrFPUV70-1">
          <mxGeometry x="186" y="190" width="150" height="40" as="geometry" />
        </mxCell>
        <mxCell id="qzIuOvZ-8KMCtrFPUV70-7" style="edgeStyle=orthogonalEdgeStyle;rounded=0;orthogonalLoop=1;jettySize=auto;html=1;exitX=0.5;exitY=1;exitDx=0;exitDy=0;entryX=0.5;entryY=0;entryDx=0;entryDy=0;" edge="1" parent="qzIuOvZ-8KMCtrFPUV70-1" source="qzIuOvZ-8KMCtrFPUV70-4" target="qzIuOvZ-8KMCtrFPUV70-6">
          <mxGeometry relative="1" as="geometry" />
        </mxCell>
        <mxCell id="0aFsL2Dd2XirSNBW9ziv-46" style="edgeStyle=orthogonalEdgeStyle;rounded=0;orthogonalLoop=1;jettySize=auto;html=1;entryX=0;entryY=0.5;entryDx=0;entryDy=0;" edge="1" parent="qzIuOvZ-8KMCtrFPUV70-1" source="qzIuOvZ-8KMCtrFPUV70-4">
          <mxGeometry relative="1" as="geometry">
            <mxPoint x="211" y="535" as="targetPoint" />
            <Array as="points">
              <mxPoint x="151" y="290" />
              <mxPoint x="151" y="535" />
            </Array>
          </mxGeometry>
        </mxCell>
        <mxCell id="qzIuOvZ-8KMCtrFPUV70-4" value="guess is in row_val" style="rhombus;whiteSpace=wrap;html=1;" vertex="1" parent="qzIuOvZ-8KMCtrFPUV70-1">
          <mxGeometry x="196" y="260" width="130" height="60" as="geometry" />
        </mxCell>
        <mxCell id="qzIuOvZ-8KMCtrFPUV70-9" style="edgeStyle=orthogonalEdgeStyle;rounded=0;orthogonalLoop=1;jettySize=auto;html=1;exitX=0.5;exitY=1;exitDx=0;exitDy=0;entryX=0.5;entryY=0;entryDx=0;entryDy=0;" edge="1" parent="qzIuOvZ-8KMCtrFPUV70-1" source="qzIuOvZ-8KMCtrFPUV70-6" target="qzIuOvZ-8KMCtrFPUV70-8">
          <mxGeometry relative="1" as="geometry" />
        </mxCell>
        <mxCell id="qzIuOvZ-8KMCtrFPUV70-6" value="col_val = puzzle[:][col]" style="rounded=0;whiteSpace=wrap;html=1;" vertex="1" parent="qzIuOvZ-8KMCtrFPUV70-1">
          <mxGeometry x="186" y="350" width="150" height="40" as="geometry" />
        </mxCell>
        <mxCell id="0aFsL2Dd2XirSNBW9ziv-43" style="edgeStyle=orthogonalEdgeStyle;rounded=0;orthogonalLoop=1;jettySize=auto;html=1;exitX=1;exitY=0.5;exitDx=0;exitDy=0;" edge="1" parent="qzIuOvZ-8KMCtrFPUV70-1" source="qzIuOvZ-8KMCtrFPUV70-8" target="0aFsL2Dd2XirSNBW9ziv-7">
          <mxGeometry relative="1" as="geometry" />
        </mxCell>
        <mxCell id="0aFsL2Dd2XirSNBW9ziv-45" style="edgeStyle=orthogonalEdgeStyle;rounded=0;orthogonalLoop=1;jettySize=auto;html=1;entryX=0.5;entryY=0;entryDx=0;entryDy=0;" edge="1" parent="qzIuOvZ-8KMCtrFPUV70-1" source="qzIuOvZ-8KMCtrFPUV70-8">
          <mxGeometry relative="1" as="geometry">
            <mxPoint x="261" y="520" as="targetPoint" />
          </mxGeometry>
        </mxCell>
        <mxCell id="qzIuOvZ-8KMCtrFPUV70-8" value="guess is in col_val" style="rhombus;whiteSpace=wrap;html=1;" vertex="1" parent="qzIuOvZ-8KMCtrFPUV70-1">
          <mxGeometry x="191" y="420" width="140" height="60" as="geometry" />
        </mxCell>
        <mxCell id="0aFsL2Dd2XirSNBW9ziv-42" style="edgeStyle=orthogonalEdgeStyle;rounded=0;orthogonalLoop=1;jettySize=auto;html=1;entryX=0.5;entryY=0;entryDx=0;entryDy=0;" edge="1" parent="qzIuOvZ-8KMCtrFPUV70-1" source="qzIuOvZ-8KMCtrFPUV70-10" target="0aFsL2Dd2XirSNBW9ziv-13">
          <mxGeometry relative="1" as="geometry" />
        </mxCell>
        <mxCell id="qzIuOvZ-8KMCtrFPUV70-10" value="i = (row//3)*3" style="rounded=0;whiteSpace=wrap;html=1;" vertex="1" parent="qzIuOvZ-8KMCtrFPUV70-1">
          <mxGeometry x="640" y="170" width="80" height="30" as="geometry" />
        </mxCell>
        <mxCell id="0aFsL2Dd2XirSNBW9ziv-7" value="1" style="ellipse;whiteSpace=wrap;html=1;aspect=fixed;" vertex="1" parent="qzIuOvZ-8KMCtrFPUV70-1">
          <mxGeometry x="381" y="435" width="30" height="30" as="geometry" />
        </mxCell>
        <mxCell id="0aFsL2Dd2XirSNBW9ziv-40" value="" style="edgeStyle=orthogonalEdgeStyle;rounded=0;orthogonalLoop=1;jettySize=auto;html=1;" edge="1" parent="qzIuOvZ-8KMCtrFPUV70-1" source="0aFsL2Dd2XirSNBW9ziv-10" target="qzIuOvZ-8KMCtrFPUV70-10">
          <mxGeometry relative="1" as="geometry" />
        </mxCell>
        <mxCell id="0aFsL2Dd2XirSNBW9ziv-10" value="1" style="ellipse;whiteSpace=wrap;html=1;aspect=fixed;" vertex="1" parent="qzIuOvZ-8KMCtrFPUV70-1">
          <mxGeometry x="665" y="120" width="30" height="30" as="geometry" />
        </mxCell>
        <mxCell id="jl0MTfO3TpjVsvyq08DH-3" style="edgeStyle=orthogonalEdgeStyle;rounded=0;orthogonalLoop=1;jettySize=auto;html=1;entryX=1;entryY=0.5;entryDx=0;entryDy=0;" edge="1" parent="qzIuOvZ-8KMCtrFPUV70-1" source="0aFsL2Dd2XirSNBW9ziv-13" target="0aFsL2Dd2XirSNBW9ziv-57">
          <mxGeometry relative="1" as="geometry" />
        </mxCell>
        <mxCell id="jl0MTfO3TpjVsvyq08DH-5" style="edgeStyle=orthogonalEdgeStyle;rounded=0;orthogonalLoop=1;jettySize=auto;html=1;entryX=0.5;entryY=0;entryDx=0;entryDy=0;" edge="1" parent="qzIuOvZ-8KMCtrFPUV70-1" source="0aFsL2Dd2XirSNBW9ziv-13" target="jl0MTfO3TpjVsvyq08DH-4">
          <mxGeometry relative="1" as="geometry" />
        </mxCell>
        <mxCell id="0aFsL2Dd2XirSNBW9ziv-13" value="i &amp;lt; 3" style="rhombus;whiteSpace=wrap;html=1;" vertex="1" parent="qzIuOvZ-8KMCtrFPUV70-1">
          <mxGeometry x="640" y="240" width="80" height="40" as="geometry" />
        </mxCell>
        <mxCell id="0aFsL2Dd2XirSNBW9ziv-17" style="edgeStyle=orthogonalEdgeStyle;rounded=0;orthogonalLoop=1;jettySize=auto;html=1;entryX=0.5;entryY=0;entryDx=0;entryDy=0;" edge="1" parent="qzIuOvZ-8KMCtrFPUV70-1" source="0aFsL2Dd2XirSNBW9ziv-14" target="0aFsL2Dd2XirSNBW9ziv-15">
          <mxGeometry relative="1" as="geometry" />
        </mxCell>
        <mxCell id="0aFsL2Dd2XirSNBW9ziv-25" style="edgeStyle=orthogonalEdgeStyle;rounded=0;orthogonalLoop=1;jettySize=auto;html=1;exitX=1;exitY=0.5;exitDx=0;exitDy=0;entryX=0.5;entryY=1;entryDx=0;entryDy=0;" edge="1" parent="qzIuOvZ-8KMCtrFPUV70-1" source="0aFsL2Dd2XirSNBW9ziv-14" target="0aFsL2Dd2XirSNBW9ziv-24">
          <mxGeometry relative="1" as="geometry" />
        </mxCell>
        <mxCell id="0aFsL2Dd2XirSNBW9ziv-14" value="j &amp;lt; 3" style="rhombus;whiteSpace=wrap;html=1;" vertex="1" parent="qzIuOvZ-8KMCtrFPUV70-1">
          <mxGeometry x="640" y="380" width="80" height="40" as="geometry" />
        </mxCell>
        <mxCell id="0aFsL2Dd2XirSNBW9ziv-22" style="edgeStyle=orthogonalEdgeStyle;rounded=0;orthogonalLoop=1;jettySize=auto;html=1;exitX=0;exitY=0.5;exitDx=0;exitDy=0;entryX=0.5;entryY=1;entryDx=0;entryDy=0;" edge="1" parent="qzIuOvZ-8KMCtrFPUV70-1" source="0aFsL2Dd2XirSNBW9ziv-15" target="0aFsL2Dd2XirSNBW9ziv-21">
          <mxGeometry relative="1" as="geometry" />
        </mxCell>
        <mxCell id="0aFsL2Dd2XirSNBW9ziv-50" style="edgeStyle=orthogonalEdgeStyle;rounded=0;orthogonalLoop=1;jettySize=auto;html=1;entryX=0.5;entryY=0;entryDx=0;entryDy=0;" edge="1" parent="qzIuOvZ-8KMCtrFPUV70-1" source="0aFsL2Dd2XirSNBW9ziv-15" target="0aFsL2Dd2XirSNBW9ziv-32">
          <mxGeometry relative="1" as="geometry" />
        </mxCell>
        <mxCell id="0aFsL2Dd2XirSNBW9ziv-15" value="guess ==&amp;nbsp;&lt;br&gt;puzzle[i][j]" style="rhombus;whiteSpace=wrap;html=1;" vertex="1" parent="qzIuOvZ-8KMCtrFPUV70-1">
          <mxGeometry x="615" y="455" width="130" height="65" as="geometry" />
        </mxCell>
        <mxCell id="0aFsL2Dd2XirSNBW9ziv-23" style="edgeStyle=orthogonalEdgeStyle;rounded=0;orthogonalLoop=1;jettySize=auto;html=1;exitX=0.5;exitY=0;exitDx=0;exitDy=0;" edge="1" parent="qzIuOvZ-8KMCtrFPUV70-1" source="0aFsL2Dd2XirSNBW9ziv-21">
          <mxGeometry relative="1" as="geometry">
            <mxPoint x="681" y="360" as="targetPoint" />
            <Array as="points">
              <mxPoint x="579" y="360" />
              <mxPoint x="681" y="360" />
            </Array>
          </mxGeometry>
        </mxCell>
        <mxCell id="0aFsL2Dd2XirSNBW9ziv-21" value="j += 1" style="rounded=0;whiteSpace=wrap;html=1;" vertex="1" parent="qzIuOvZ-8KMCtrFPUV70-1">
          <mxGeometry x="556" y="380" width="45" height="30" as="geometry" />
        </mxCell>
        <mxCell id="0aFsL2Dd2XirSNBW9ziv-27" style="edgeStyle=orthogonalEdgeStyle;rounded=0;orthogonalLoop=1;jettySize=auto;html=1;" edge="1" parent="qzIuOvZ-8KMCtrFPUV70-1" source="0aFsL2Dd2XirSNBW9ziv-24">
          <mxGeometry relative="1" as="geometry">
            <mxPoint x="681" y="220" as="targetPoint" />
            <Array as="points">
              <mxPoint x="773" y="220" />
              <mxPoint x="681" y="220" />
            </Array>
          </mxGeometry>
        </mxCell>
        <mxCell id="0aFsL2Dd2XirSNBW9ziv-24" value="i += 1" style="rounded=0;whiteSpace=wrap;html=1;" vertex="1" parent="qzIuOvZ-8KMCtrFPUV70-1">
          <mxGeometry x="751" y="315" width="45" height="20" as="geometry" />
        </mxCell>
        <mxCell id="0aFsL2Dd2XirSNBW9ziv-32" value="2" style="ellipse;whiteSpace=wrap;html=1;aspect=fixed;" vertex="1" parent="qzIuOvZ-8KMCtrFPUV70-1">
          <mxGeometry x="665" y="570" width="30" height="30" as="geometry" />
        </mxCell>
        <mxCell id="0aFsL2Dd2XirSNBW9ziv-34" value="False" style="text;html=1;strokeColor=none;fillColor=none;align=center;verticalAlign=middle;whiteSpace=wrap;rounded=0;" vertex="1" parent="qzIuOvZ-8KMCtrFPUV70-1">
          <mxGeometry x="610" y="240" width="40" height="20" as="geometry" />
        </mxCell>
        <mxCell id="0aFsL2Dd2XirSNBW9ziv-35" value="False" style="text;html=1;strokeColor=none;fillColor=none;align=center;verticalAlign=middle;whiteSpace=wrap;rounded=0;" vertex="1" parent="qzIuOvZ-8KMCtrFPUV70-1">
          <mxGeometry x="721" y="380" width="40" height="20" as="geometry" />
        </mxCell>
        <mxCell id="0aFsL2Dd2XirSNBW9ziv-36" value="False" style="text;html=1;strokeColor=none;fillColor=none;align=center;verticalAlign=middle;whiteSpace=wrap;rounded=0;" vertex="1" parent="qzIuOvZ-8KMCtrFPUV70-1">
          <mxGeometry x="581" y="462" width="40" height="20" as="geometry" />
        </mxCell>
        <mxCell id="0aFsL2Dd2XirSNBW9ziv-37" value="True" style="text;html=1;strokeColor=none;fillColor=none;align=center;verticalAlign=middle;whiteSpace=wrap;rounded=0;" vertex="1" parent="qzIuOvZ-8KMCtrFPUV70-1">
          <mxGeometry x="681" y="530" width="40" height="20" as="geometry" />
        </mxCell>
        <mxCell id="0aFsL2Dd2XirSNBW9ziv-38" value="True" style="text;html=1;strokeColor=none;fillColor=none;align=center;verticalAlign=middle;whiteSpace=wrap;rounded=0;" vertex="1" parent="qzIuOvZ-8KMCtrFPUV70-1">
          <mxGeometry x="641" y="420" width="40" height="20" as="geometry" />
        </mxCell>
        <mxCell id="0aFsL2Dd2XirSNBW9ziv-39" value="True" style="text;html=1;strokeColor=none;fillColor=none;align=center;verticalAlign=middle;whiteSpace=wrap;rounded=0;" vertex="1" parent="qzIuOvZ-8KMCtrFPUV70-1">
          <mxGeometry x="681" y="280" width="40" height="20" as="geometry" />
        </mxCell>
        <mxCell id="0aFsL2Dd2XirSNBW9ziv-53" style="edgeStyle=orthogonalEdgeStyle;rounded=0;orthogonalLoop=1;jettySize=auto;html=1;entryX=1;entryY=0.5;entryDx=0;entryDy=0;" edge="1" parent="qzIuOvZ-8KMCtrFPUV70-1" source="0aFsL2Dd2XirSNBW9ziv-51">
          <mxGeometry relative="1" as="geometry">
            <mxPoint x="311" y="535" as="targetPoint" />
          </mxGeometry>
        </mxCell>
        <mxCell id="0aFsL2Dd2XirSNBW9ziv-51" value="2" style="ellipse;whiteSpace=wrap;html=1;aspect=fixed;" vertex="1" parent="qzIuOvZ-8KMCtrFPUV70-1">
          <mxGeometry x="381" y="520" width="30" height="30" as="geometry" />
        </mxCell>
        <mxCell id="0aFsL2Dd2XirSNBW9ziv-56" value="is_valid(puzzle, guess, row, col)" style="rounded=1;whiteSpace=wrap;html=1;" vertex="1" parent="qzIuOvZ-8KMCtrFPUV70-1">
          <mxGeometry x="201" y="120" width="120" height="40" as="geometry" />
        </mxCell>
        <mxCell id="0aFsL2Dd2XirSNBW9ziv-57" value="return True" style="rounded=1;whiteSpace=wrap;html=1;" vertex="1" parent="qzIuOvZ-8KMCtrFPUV70-1">
          <mxGeometry x="501" y="245" width="80" height="30" as="geometry" />
        </mxCell>
        <mxCell id="0aFsL2Dd2XirSNBW9ziv-58" value="return False" style="rounded=1;whiteSpace=wrap;html=1;" vertex="1" parent="qzIuOvZ-8KMCtrFPUV70-1">
          <mxGeometry x="211" y="520" width="100" height="30" as="geometry" />
        </mxCell>
        <mxCell id="0aFsL2Dd2XirSNBW9ziv-59" value="True" style="text;html=1;strokeColor=none;fillColor=none;align=center;verticalAlign=middle;whiteSpace=wrap;rounded=0;" vertex="1" parent="qzIuOvZ-8KMCtrFPUV70-1">
          <mxGeometry x="261" y="482" width="40" height="30" as="geometry" />
        </mxCell>
        <mxCell id="0aFsL2Dd2XirSNBW9ziv-60" value="True" style="text;html=1;strokeColor=none;fillColor=none;align=center;verticalAlign=middle;whiteSpace=wrap;rounded=0;" vertex="1" parent="qzIuOvZ-8KMCtrFPUV70-1">
          <mxGeometry x="156" y="265" width="40" height="30" as="geometry" />
        </mxCell>
        <mxCell id="0aFsL2Dd2XirSNBW9ziv-61" value="False" style="text;html=1;strokeColor=none;fillColor=none;align=center;verticalAlign=middle;whiteSpace=wrap;rounded=0;" vertex="1" parent="qzIuOvZ-8KMCtrFPUV70-1">
          <mxGeometry x="261" y="315" width="40" height="30" as="geometry" />
        </mxCell>
        <mxCell id="0aFsL2Dd2XirSNBW9ziv-62" value="False" style="text;html=1;strokeColor=none;fillColor=none;align=center;verticalAlign=middle;whiteSpace=wrap;rounded=0;" vertex="1" parent="qzIuOvZ-8KMCtrFPUV70-1">
          <mxGeometry x="336" y="420" width="40" height="30" as="geometry" />
        </mxCell>
        <mxCell id="jl0MTfO3TpjVsvyq08DH-7" style="edgeStyle=orthogonalEdgeStyle;rounded=0;orthogonalLoop=1;jettySize=auto;html=1;entryX=0.5;entryY=0;entryDx=0;entryDy=0;" edge="1" parent="qzIuOvZ-8KMCtrFPUV70-1" source="jl0MTfO3TpjVsvyq08DH-4" target="0aFsL2Dd2XirSNBW9ziv-14">
          <mxGeometry relative="1" as="geometry" />
        </mxCell>
        <mxCell id="jl0MTfO3TpjVsvyq08DH-4" value="j = (col//3)*3" style="rounded=0;whiteSpace=wrap;html=1;" vertex="1" parent="qzIuOvZ-8KMCtrFPUV70-1">
          <mxGeometry x="640" y="310" width="80" height="30" as="geometry" />
        </mxCell>
      </root>
    </mxGraphModel>
  </diagram>
  <diagram id="mO7lZmHKqv0eM_bxJsOo" name="Page-4">
    <mxGraphModel dx="1826" dy="771" grid="1" gridSize="10" guides="1" tooltips="1" connect="1" arrows="1" fold="1" page="1" pageScale="1" pageWidth="850" pageHeight="1100" math="0" shadow="0">
      <root>
        <mxCell id="j5hidXt8QVkjiFWgBTCr-0" />
        <mxCell id="j5hidXt8QVkjiFWgBTCr-1" parent="j5hidXt8QVkjiFWgBTCr-0" />
        <mxCell id="j5hidXt8QVkjiFWgBTCr-4" style="edgeStyle=orthogonalEdgeStyle;rounded=0;orthogonalLoop=1;jettySize=auto;html=1;exitX=0.5;exitY=1;exitDx=0;exitDy=0;entryX=0.5;entryY=0;entryDx=0;entryDy=0;" edge="1" parent="j5hidXt8QVkjiFWgBTCr-1" source="j5hidXt8QVkjiFWgBTCr-5" target="j5hidXt8QVkjiFWgBTCr-7">
          <mxGeometry relative="1" as="geometry" />
        </mxCell>
        <mxCell id="j5hidXt8QVkjiFWgBTCr-5" value="find_empty(puzzle)" style="shape=process;whiteSpace=wrap;html=1;backgroundOutline=1;" vertex="1" parent="j5hidXt8QVkjiFWgBTCr-1">
          <mxGeometry x="295" y="163" width="170" height="50" as="geometry" />
        </mxCell>
        <mxCell id="j5hidXt8QVkjiFWgBTCr-6" style="edgeStyle=orthogonalEdgeStyle;rounded=0;orthogonalLoop=1;jettySize=auto;html=1;exitX=0.5;exitY=1;exitDx=0;exitDy=0;entryX=0.5;entryY=0;entryDx=0;entryDy=0;" edge="1" parent="j5hidXt8QVkjiFWgBTCr-1" source="j5hidXt8QVkjiFWgBTCr-7" target="j5hidXt8QVkjiFWgBTCr-10">
          <mxGeometry relative="1" as="geometry" />
        </mxCell>
        <mxCell id="j5hidXt8QVkjiFWgBTCr-7" value="r, c" style="shape=parallelogram;perimeter=parallelogramPerimeter;whiteSpace=wrap;html=1;fixedSize=1;" vertex="1" parent="j5hidXt8QVkjiFWgBTCr-1">
          <mxGeometry x="320" y="243" width="120" height="30" as="geometry" />
        </mxCell>
        <mxCell id="j5hidXt8QVkjiFWgBTCr-8" style="edgeStyle=orthogonalEdgeStyle;rounded=0;orthogonalLoop=1;jettySize=auto;html=1;exitX=0.5;exitY=1;exitDx=0;exitDy=0;entryX=0.5;entryY=0;entryDx=0;entryDy=0;" edge="1" parent="j5hidXt8QVkjiFWgBTCr-1" source="j5hidXt8QVkjiFWgBTCr-10" target="j5hidXt8QVkjiFWgBTCr-14">
          <mxGeometry relative="1" as="geometry" />
        </mxCell>
        <mxCell id="j5hidXt8QVkjiFWgBTCr-9" style="edgeStyle=orthogonalEdgeStyle;rounded=0;orthogonalLoop=1;jettySize=auto;html=1;exitX=1;exitY=0.5;exitDx=0;exitDy=0;entryX=0;entryY=0.5;entryDx=0;entryDy=0;" edge="1" parent="j5hidXt8QVkjiFWgBTCr-1" source="j5hidXt8QVkjiFWgBTCr-10" target="j5hidXt8QVkjiFWgBTCr-23">
          <mxGeometry relative="1" as="geometry" />
        </mxCell>
        <mxCell id="j5hidXt8QVkjiFWgBTCr-10" value="r or c is None" style="rhombus;whiteSpace=wrap;html=1;" vertex="1" parent="j5hidXt8QVkjiFWgBTCr-1">
          <mxGeometry x="310" y="303" width="140" height="50" as="geometry" />
        </mxCell>
        <mxCell id="j5hidXt8QVkjiFWgBTCr-11" style="edgeStyle=orthogonalEdgeStyle;rounded=0;orthogonalLoop=1;jettySize=auto;html=1;exitX=0.5;exitY=1;exitDx=0;exitDy=0;entryX=0.5;entryY=0;entryDx=0;entryDy=0;" edge="1" parent="j5hidXt8QVkjiFWgBTCr-1" source="j5hidXt8QVkjiFWgBTCr-12" target="j5hidXt8QVkjiFWgBTCr-19">
          <mxGeometry relative="1" as="geometry" />
        </mxCell>
        <mxCell id="j5hidXt8QVkjiFWgBTCr-32" style="edgeStyle=orthogonalEdgeStyle;rounded=0;orthogonalLoop=1;jettySize=auto;html=1;entryX=0;entryY=0.5;entryDx=0;entryDy=0;" edge="1" parent="j5hidXt8QVkjiFWgBTCr-1" source="j5hidXt8QVkjiFWgBTCr-12" target="j5hidXt8QVkjiFWgBTCr-31">
          <mxGeometry relative="1" as="geometry" />
        </mxCell>
        <mxCell id="j5hidXt8QVkjiFWgBTCr-12" value="guess &amp;lt; 10" style="rhombus;whiteSpace=wrap;html=1;" vertex="1" parent="j5hidXt8QVkjiFWgBTCr-1">
          <mxGeometry x="310" y="463" width="140" height="60" as="geometry" />
        </mxCell>
        <mxCell id="j5hidXt8QVkjiFWgBTCr-13" style="edgeStyle=orthogonalEdgeStyle;rounded=0;orthogonalLoop=1;jettySize=auto;html=1;exitX=0.5;exitY=1;exitDx=0;exitDy=0;entryX=0.5;entryY=0;entryDx=0;entryDy=0;" edge="1" parent="j5hidXt8QVkjiFWgBTCr-1" source="j5hidXt8QVkjiFWgBTCr-14" target="j5hidXt8QVkjiFWgBTCr-12">
          <mxGeometry relative="1" as="geometry" />
        </mxCell>
        <mxCell id="j5hidXt8QVkjiFWgBTCr-14" value="guess = 1" style="rounded=0;whiteSpace=wrap;html=1;" vertex="1" parent="j5hidXt8QVkjiFWgBTCr-1">
          <mxGeometry x="320" y="393" width="120" height="40" as="geometry" />
        </mxCell>
        <mxCell id="j5hidXt8QVkjiFWgBTCr-15" style="edgeStyle=orthogonalEdgeStyle;rounded=0;orthogonalLoop=1;jettySize=auto;html=1;exitX=0;exitY=0.5;exitDx=0;exitDy=0;" edge="1" parent="j5hidXt8QVkjiFWgBTCr-1" source="j5hidXt8QVkjiFWgBTCr-17" target="j5hidXt8QVkjiFWgBTCr-25">
          <mxGeometry relative="1" as="geometry" />
        </mxCell>
        <mxCell id="j5hidXt8QVkjiFWgBTCr-16" style="edgeStyle=orthogonalEdgeStyle;rounded=0;orthogonalLoop=1;jettySize=auto;html=1;exitX=0.5;exitY=1;exitDx=0;exitDy=0;" edge="1" parent="j5hidXt8QVkjiFWgBTCr-1" source="j5hidXt8QVkjiFWgBTCr-17" target="j5hidXt8QVkjiFWgBTCr-20">
          <mxGeometry relative="1" as="geometry" />
        </mxCell>
        <mxCell id="j5hidXt8QVkjiFWgBTCr-17" value="bool" style="rhombus;whiteSpace=wrap;html=1;" vertex="1" parent="j5hidXt8QVkjiFWgBTCr-1">
          <mxGeometry x="310" y="643" width="140" height="60" as="geometry" />
        </mxCell>
        <mxCell id="j5hidXt8QVkjiFWgBTCr-18" style="edgeStyle=orthogonalEdgeStyle;rounded=0;orthogonalLoop=1;jettySize=auto;html=1;exitX=0.5;exitY=1;exitDx=0;exitDy=0;entryX=0.5;entryY=0;entryDx=0;entryDy=0;" edge="1" parent="j5hidXt8QVkjiFWgBTCr-1" source="j5hidXt8QVkjiFWgBTCr-19">
          <mxGeometry relative="1" as="geometry">
            <mxPoint x="380" y="643" as="targetPoint" />
          </mxGeometry>
        </mxCell>
        <mxCell id="j5hidXt8QVkjiFWgBTCr-19" value="is_valid(puzzle, r, c)" style="shape=process;whiteSpace=wrap;html=1;backgroundOutline=1;" vertex="1" parent="j5hidXt8QVkjiFWgBTCr-1">
          <mxGeometry x="290" y="553" width="180" height="60" as="geometry" />
        </mxCell>
        <mxCell id="B3Rq73KfQUJtvkzLQm-v-0" style="edgeStyle=orthogonalEdgeStyle;rounded=0;orthogonalLoop=1;jettySize=auto;html=1;" edge="1" parent="j5hidXt8QVkjiFWgBTCr-1" source="j5hidXt8QVkjiFWgBTCr-20" target="j5hidXt8QVkjiFWgBTCr-22">
          <mxGeometry relative="1" as="geometry" />
        </mxCell>
        <mxCell id="j5hidXt8QVkjiFWgBTCr-20" value="puzzle[r][c] = guess" style="rounded=0;whiteSpace=wrap;html=1;" vertex="1" parent="j5hidXt8QVkjiFWgBTCr-1">
          <mxGeometry x="320" y="733" width="120" height="30" as="geometry" />
        </mxCell>
        <mxCell id="j5hidXt8QVkjiFWgBTCr-21" value="bool" style="rhombus;whiteSpace=wrap;html=1;" vertex="1" parent="j5hidXt8QVkjiFWgBTCr-1">
          <mxGeometry x="308" y="900" width="140" height="60" as="geometry" />
        </mxCell>
        <mxCell id="j5hidXt8QVkjiFWgBTCr-22" value="solve_sudoku(puzzle)" style="shape=process;whiteSpace=wrap;html=1;backgroundOutline=1;" vertex="1" parent="j5hidXt8QVkjiFWgBTCr-1">
          <mxGeometry x="300" y="790" width="160" height="50" as="geometry" />
        </mxCell>
        <mxCell id="j5hidXt8QVkjiFWgBTCr-23" value="return True" style="rounded=1;whiteSpace=wrap;html=1;" vertex="1" parent="j5hidXt8QVkjiFWgBTCr-1">
          <mxGeometry x="500" y="313" width="80" height="30" as="geometry" />
        </mxCell>
        <mxCell id="j5hidXt8QVkjiFWgBTCr-24" style="edgeStyle=orthogonalEdgeStyle;rounded=0;orthogonalLoop=1;jettySize=auto;html=1;exitX=0.5;exitY=0;exitDx=0;exitDy=0;" edge="1" parent="j5hidXt8QVkjiFWgBTCr-1" source="j5hidXt8QVkjiFWgBTCr-25">
          <mxGeometry relative="1" as="geometry">
            <mxPoint x="380" y="443" as="targetPoint" />
            <Array as="points">
              <mxPoint x="220" y="443" />
            </Array>
          </mxGeometry>
        </mxCell>
        <mxCell id="j5hidXt8QVkjiFWgBTCr-25" value="puzzle[r][c] = 0" style="rounded=0;whiteSpace=wrap;html=1;" vertex="1" parent="j5hidXt8QVkjiFWgBTCr-1">
          <mxGeometry x="170" y="573" width="100" height="40" as="geometry" />
        </mxCell>
        <mxCell id="j5hidXt8QVkjiFWgBTCr-26" value="False" style="text;html=1;align=center;verticalAlign=middle;resizable=0;points=[];autosize=1;" vertex="1" parent="j5hidXt8QVkjiFWgBTCr-1">
          <mxGeometry x="374" y="357" width="50" height="20" as="geometry" />
        </mxCell>
        <mxCell id="j5hidXt8QVkjiFWgBTCr-27" value="True" style="text;html=1;align=center;verticalAlign=middle;resizable=0;points=[];autosize=1;" vertex="1" parent="j5hidXt8QVkjiFWgBTCr-1">
          <mxGeometry x="448" y="307" width="40" height="20" as="geometry" />
        </mxCell>
        <mxCell id="j5hidXt8QVkjiFWgBTCr-28" value="True" style="text;html=1;align=center;verticalAlign=middle;resizable=0;points=[];autosize=1;" vertex="1" parent="j5hidXt8QVkjiFWgBTCr-1">
          <mxGeometry x="385" y="523" width="40" height="20" as="geometry" />
        </mxCell>
        <mxCell id="j5hidXt8QVkjiFWgBTCr-29" value="True" style="text;html=1;align=center;verticalAlign=middle;resizable=0;points=[];autosize=1;" vertex="1" parent="j5hidXt8QVkjiFWgBTCr-1">
          <mxGeometry x="380" y="703" width="40" height="20" as="geometry" />
        </mxCell>
        <mxCell id="j5hidXt8QVkjiFWgBTCr-30" value="False" style="text;html=1;align=center;verticalAlign=middle;resizable=0;points=[];autosize=1;" vertex="1" parent="j5hidXt8QVkjiFWgBTCr-1">
          <mxGeometry x="245" y="653" width="50" height="20" as="geometry" />
        </mxCell>
        <mxCell id="j5hidXt8QVkjiFWgBTCr-31" value="return False" style="rounded=1;whiteSpace=wrap;html=1;" vertex="1" parent="j5hidXt8QVkjiFWgBTCr-1">
          <mxGeometry x="500" y="478" width="80" height="30" as="geometry" />
        </mxCell>
        <mxCell id="j5hidXt8QVkjiFWgBTCr-33" value="False" style="text;html=1;align=center;verticalAlign=middle;resizable=0;points=[];autosize=1;" vertex="1" parent="j5hidXt8QVkjiFWgBTCr-1">
          <mxGeometry x="445" y="472" width="50" height="20" as="geometry" />
        </mxCell>
        <mxCell id="wRwCGgZyPC5aHiQHvdru-1" style="edgeStyle=orthogonalEdgeStyle;rounded=0;orthogonalLoop=1;jettySize=auto;html=1;entryX=0.5;entryY=0;entryDx=0;entryDy=0;" edge="1" parent="j5hidXt8QVkjiFWgBTCr-1" source="wRwCGgZyPC5aHiQHvdru-0" target="j5hidXt8QVkjiFWgBTCr-5">
          <mxGeometry relative="1" as="geometry" />
        </mxCell>
        <mxCell id="wRwCGgZyPC5aHiQHvdru-0" value="solve_sudoku(puzzle)" style="rounded=1;whiteSpace=wrap;html=1;" vertex="1" parent="j5hidXt8QVkjiFWgBTCr-1">
          <mxGeometry x="299" y="90" width="162" height="40" as="geometry" />
        </mxCell>
      </root>
    </mxGraphModel>
  </diagram>
</mxfile>
